<?xml version="1.0" encoding="utf-8"?>
<!-- Generator: Adobe Illustrator 27.7.0, SVG Export Plug-In . SVG Version: 6.00 Build 0)  -->
<svg version="1.1" id="Layer_1" xmlns="http://www.w3.org/2000/svg" xmlns:xlink="http://www.w3.org/1999/xlink" x="0px" y="0px"
	 viewBox="0 0 450 70" style="enable-background:new 0 0 450 70;" xml:space="preserve">
<style type="text/css">
	.st0{fill:url(#SVGID_1_);}
	.st1{fill:url(#SVGID_00000164500651137478792490000002300725178176158609_);}
	.st2{fill:#F2B91B;}
	.st3{opacity:0.3;fill:#191818;}
	.st4{opacity:0.4;fill:#1A181A;}
	.st5{fill:#211E1F;}
	.st6{fill:url(#SVGID_00000061447384321959305140000004265571220819360932_);}
	.st7{fill:url(#SVGID_00000117663142103393377770000004045830389923945382_);}
	.st8{fill:url(#SVGID_00000142883132309538892030000013627281931926818227_);}
	.st9{fill:url(#SVGID_00000031189765624894479600000018093796764975245202_);}
	.st10{fill:url(#SVGID_00000095324387849624951730000013345513650005967256_);}
	.st11{fill:url(#SVGID_00000029018896785137244450000003460519407915393448_);}
	.st12{fill:url(#SVGID_00000176020029929255322500000005071142376512542617_);}
	.st13{fill:url(#SVGID_00000057133624707315277160000008292825700777464975_);}
</style>
<g>
	<g>
		<g>
			<g>
				<g>
					<g>
						<g>
							<linearGradient id="SVGID_1_" gradientUnits="userSpaceOnUse" x1="36.9186" y1="16.7291" x2="58.3184" y2="16.7291">
								<stop  offset="0" style="stop-color:#363839"/>
								<stop  offset="0.4275" style="stop-color:#262728"/>
								<stop  offset="1" style="stop-color:#010101"/>
							</linearGradient>
							<path class="st0" d="M36.919,7.067v19.323c0,0.924,1.117,1.387,1.771,0.734L58.012,7.8c0.654-0.654,0.191-1.771-0.734-1.771
								H37.956C37.383,6.029,36.919,6.494,36.919,7.067z"/>
							
								<linearGradient id="SVGID_00000082343856785766521630000007987766357207604630_" gradientUnits="userSpaceOnUse" x1="36.9186" y1="57.4865" x2="58.5415" y2="57.4865">
								<stop  offset="0" style="stop-color:#333536"/>
								<stop  offset="0.6596" style="stop-color:#212425"/>
								<stop  offset="1" style="stop-color:#151919"/>
							</linearGradient>
							<path style="fill:url(#SVGID_00000082343856785766521630000007987766357207604630_);" d="M58.282,61.701l-9.933-9.93
								L36.919,63.202h20.742C58.444,63.202,58.836,62.255,58.282,61.701z"/>
							<path class="st2" d="M53.96,45.932l17.269,17.27h20.74c0.783,0,1.176-0.947,0.622-1.501l-27.22-27.22L53.96,45.932z"/>
							<path class="st2" d="M54.074,46.047l11.431-11.431L92.591,7.53c0.554-0.554,0.162-1.501-0.622-1.501h-20.74L36.919,40.34
								v22.862L48.35,51.771L54.074,46.047z"/>
							<polygon class="st3" points="65.505,34.616 54.074,46.047 58.362,50.335 72.651,41.761 							"/>
							<polygon class="st4" points="36.919,63.202 51.207,54.629 48.35,51.771 							"/>
							<polygon class="st3" points="48.35,51.771 51.207,54.629 58.362,50.335 54.074,46.047 							"/>
						</g>
					</g>
				</g>
			</g>
		</g>
		<g>
			<g>
				<path class="st5" d="M125.371,60.507c-0.25,0.749-0.624,1.383-1.124,1.901c-0.499,0.518-1.086,0.908-1.76,1.17
					c-0.674,0.262-1.417,0.393-2.228,0.393c-1.186,0-2.216-0.256-3.09-0.768c-0.874-0.512-1.548-1.242-2.022-2.191
					c-0.475-0.949-0.712-2.085-0.712-3.408c0-1.323,0.237-2.459,0.712-3.408c0.474-0.949,1.148-1.679,2.022-2.191
					c0.874-0.512,1.898-0.767,3.071-0.767c0.811,0,1.545,0.112,2.2,0.337c0.655,0.225,1.214,0.562,1.676,1.011
					c0.462,0.449,0.817,1.011,1.067,1.685l-1.891,0.843c-0.25-0.737-0.612-1.276-1.086-1.62c-0.475-0.343-1.093-0.515-1.854-0.515
					c-0.762,0-1.43,0.181-2.004,0.543c-0.574,0.362-1.021,0.887-1.339,1.573c-0.318,0.687-0.477,1.523-0.477,2.509
					c0,0.974,0.15,1.807,0.449,2.5c0.3,0.693,0.73,1.22,1.292,1.582c0.562,0.363,1.236,0.543,2.022,0.543
					c0.761,0,1.42-0.197,1.976-0.59c0.555-0.393,0.952-0.983,1.189-1.77L125.371,60.507z"/>
				<path class="st5" d="M137.243,51.238c1.198,0,2.234,0.256,3.108,0.767c0.874,0.512,1.548,1.242,2.022,2.191
					c0.474,0.949,0.712,2.085,0.712,3.408c0,1.323-0.237,2.459-0.712,3.408c-0.475,0.949-1.149,1.679-2.022,2.191
					c-0.874,0.512-1.91,0.768-3.108,0.768c-1.186,0-2.216-0.256-3.09-0.768c-0.874-0.512-1.548-1.242-2.022-2.191
					c-0.475-0.949-0.712-2.085-0.712-3.408c0-1.323,0.237-2.459,0.712-3.408c0.474-0.949,1.148-1.679,2.022-2.191
					C135.027,51.494,136.056,51.238,137.243,51.238z M137.243,52.979c-0.774,0-1.439,0.181-1.994,0.543
					c-0.556,0.362-0.983,0.887-1.283,1.573c-0.3,0.687-0.449,1.523-0.449,2.509c0,0.974,0.15,1.807,0.449,2.5
					c0.3,0.693,0.727,1.22,1.283,1.582c0.555,0.363,1.22,0.543,1.994,0.543c0.786,0,1.457-0.181,2.013-0.543
					c0.555-0.362,0.983-0.889,1.283-1.582c0.3-0.693,0.449-1.526,0.449-2.5c0-0.986-0.15-1.823-0.449-2.509
					c-0.3-0.686-0.727-1.211-1.283-1.573C138.7,53.16,138.029,52.979,137.243,52.979z"/>
				<path class="st5" d="M160.368,51.425v12.358h-2.378l-4.775-7.79l-1.198-2.191h-0.019l0.075,2.004v7.977h-1.835V51.425h2.359
					l4.756,7.771l1.217,2.229h0.019l-0.075-2.022v-7.977H160.368z"/>
				<path class="st5" d="M178.325,51.425v12.358h-2.378l-4.775-7.79l-1.198-2.191h-0.019l0.075,2.004v7.977h-1.835V51.425h2.359
					l4.756,7.771l1.217,2.229h0.019l-0.075-2.022v-7.977H178.325z"/>
				<path class="st5" d="M186.152,63.784V51.425h8.951v1.723h-6.947v3.558h5.43v1.685h-5.43v3.67h7.209v1.723H186.152z"/>
				<path class="st5" d="M212.255,60.507c-0.25,0.749-0.624,1.383-1.124,1.901c-0.499,0.518-1.086,0.908-1.76,1.17
					c-0.674,0.262-1.417,0.393-2.228,0.393c-1.186,0-2.216-0.256-3.09-0.768c-0.874-0.512-1.548-1.242-2.022-2.191
					c-0.475-0.949-0.712-2.085-0.712-3.408c0-1.323,0.237-2.459,0.712-3.408c0.474-0.949,1.148-1.679,2.022-2.191
					c0.874-0.512,1.898-0.767,3.071-0.767c0.811,0,1.545,0.112,2.2,0.337c0.655,0.225,1.214,0.562,1.676,1.011
					c0.462,0.449,0.817,1.011,1.067,1.685l-1.891,0.843c-0.25-0.737-0.612-1.276-1.086-1.62c-0.475-0.343-1.093-0.515-1.854-0.515
					c-0.762,0-1.43,0.181-2.004,0.543c-0.574,0.362-1.021,0.887-1.339,1.573c-0.318,0.687-0.477,1.523-0.477,2.509
					c0,0.974,0.15,1.807,0.449,2.5c0.3,0.693,0.73,1.22,1.292,1.582c0.562,0.363,1.236,0.543,2.022,0.543
					c0.761,0,1.42-0.197,1.976-0.59c0.555-0.393,0.952-0.983,1.189-1.77L212.255,60.507z"/>
				<path class="st5" d="M228.19,51.425v1.723h-4.232v10.636h-2.004V53.148h-4.232v-1.723H228.19z"/>
				<path class="st5" d="M234.762,63.784V51.425h8.951v1.723h-6.947v3.558h5.43v1.685h-5.43v3.67h7.209v1.723H234.762z"/>
				<path class="st5" d="M255.21,51.425c1.935,0,3.442,0.534,4.522,1.601c1.08,1.067,1.62,2.593,1.62,4.578s-0.54,3.511-1.62,4.578
					c-1.08,1.067-2.587,1.601-4.522,1.601h-4.363V51.425H255.21z M255.21,62.08c1.311,0,2.313-0.39,3.005-1.17
					c0.693-0.78,1.039-1.882,1.039-3.305c0-1.423-0.346-2.525-1.039-3.305c-0.693-0.78-1.695-1.17-3.005-1.17h-2.359v8.951H255.21z"
					/>
				<path class="st5" d="M280.676,63.784l-3.633-12.358h2.116l2.772,10.617l2.696-10.617h2.06l2.715,10.636l2.753-10.636h2.041
					l-3.614,12.358h-2.359l-1.966-7.415l-0.618-2.846h-0.019l-0.618,2.846l-1.947,7.415H280.676z"/>
				<path class="st5" d="M305.674,51.238c1.198,0,2.234,0.256,3.109,0.767c0.874,0.512,1.548,1.242,2.022,2.191
					c0.474,0.949,0.711,2.085,0.711,3.408c0,1.323-0.237,2.459-0.711,3.408c-0.475,0.949-1.149,1.679-2.022,2.191
					c-0.874,0.512-1.91,0.768-3.109,0.768c-1.186,0-2.216-0.256-3.09-0.768c-0.874-0.512-1.548-1.242-2.022-2.191
					c-0.474-0.949-0.711-2.085-0.711-3.408c0-1.323,0.237-2.459,0.711-3.408c0.474-0.949,1.149-1.679,2.022-2.191
					C303.458,51.494,304.488,51.238,305.674,51.238z M305.674,52.979c-0.774,0-1.439,0.181-1.994,0.543
					c-0.555,0.362-0.983,0.887-1.283,1.573c-0.299,0.687-0.449,1.523-0.449,2.509c0,0.974,0.15,1.807,0.449,2.5
					c0.3,0.693,0.727,1.22,1.283,1.582c0.555,0.363,1.22,0.543,1.994,0.543c0.786,0,1.457-0.181,2.013-0.543
					c0.555-0.362,0.983-0.889,1.283-1.582c0.299-0.693,0.45-1.526,0.45-2.5c0-0.986-0.15-1.823-0.45-2.509
					c-0.3-0.686-0.728-1.211-1.283-1.573C307.132,53.16,306.461,52.979,305.674,52.979z"/>
				<path class="st5" d="M323.707,51.425c1.323,0,2.375,0.331,3.155,0.992c0.78,0.662,1.17,1.554,1.17,2.678
					c0,1.161-0.39,2.057-1.17,2.687c-0.78,0.63-1.832,0.946-3.155,0.946l-0.187,0.113h-2.865v4.943h-1.985V51.425H323.707z
					 M323.557,57.173c0.811,0,1.414-0.165,1.807-0.496c0.393-0.331,0.59-0.839,0.59-1.526c0-0.674-0.197-1.18-0.59-1.517
					c-0.393-0.337-0.996-0.506-1.807-0.506h-2.902v4.044H323.557z M324.737,57.585l4.026,6.198h-2.303l-3.445-5.412L324.737,57.585z
					"/>
				<path class="st5" d="M337.432,51.425v12.358h-2.003V51.425H337.432z M345.559,51.425l-5.505,5.954l-0.225,0.019l-3.202,3.446
					l-0.187-2.191l6.666-7.228H345.559z M340.465,55.844l5.206,7.939h-2.359l-4.438-6.816L340.465,55.844z"/>
				<path class="st5" d="M355.914,51.238c1.111,0,2.072,0.209,2.884,0.627c0.811,0.418,1.498,1.033,2.06,1.844l-1.348,1.292
					c-0.474-0.724-1.008-1.245-1.601-1.563c-0.593-0.318-1.295-0.478-2.107-0.478c-0.599,0-1.092,0.081-1.479,0.243
					c-0.387,0.162-0.671,0.378-0.852,0.646c-0.181,0.269-0.272,0.571-0.272,0.908c0,0.387,0.134,0.724,0.403,1.011
					c0.268,0.287,0.771,0.512,1.507,0.674l2.509,0.562c1.198,0.262,2.047,0.662,2.547,1.198c0.499,0.537,0.749,1.217,0.749,2.041
					c0,0.762-0.206,1.423-0.618,1.985c-0.412,0.562-0.983,0.993-1.713,1.292c-0.73,0.3-1.589,0.449-2.575,0.449
					c-0.874,0-1.66-0.112-2.359-0.337c-0.699-0.225-1.311-0.531-1.835-0.918c-0.524-0.387-0.955-0.83-1.292-1.33l1.386-1.386
					c0.262,0.437,0.593,0.827,0.993,1.17c0.399,0.343,0.864,0.608,1.395,0.796c0.53,0.187,1.12,0.281,1.77,0.281
					c0.574,0,1.07-0.069,1.488-0.206c0.418-0.137,0.737-0.34,0.955-0.609c0.218-0.268,0.328-0.59,0.328-0.964
					c0-0.362-0.122-0.68-0.365-0.955c-0.243-0.274-0.696-0.487-1.358-0.637l-2.715-0.618c-0.749-0.162-1.367-0.393-1.854-0.693
					c-0.487-0.299-0.849-0.665-1.086-1.095c-0.237-0.431-0.356-0.914-0.356-1.451c0-0.699,0.19-1.332,0.571-1.901
					c0.38-0.568,0.933-1.023,1.657-1.367C354.053,51.409,354.915,51.238,355.914,51.238z"/>
				<path class="st5" d="M369.901,51.425v12.358h-2.003V51.425H369.901z M377.017,56.668v1.723h-8.108v-1.723H377.017z
					 M378.028,51.425v12.358h-2.022V51.425H378.028z"/>
				<path class="st5" d="M390.986,51.238c1.198,0,2.234,0.256,3.109,0.767c0.874,0.512,1.548,1.242,2.022,2.191
					c0.474,0.949,0.711,2.085,0.711,3.408c0,1.323-0.237,2.459-0.711,3.408c-0.475,0.949-1.149,1.679-2.022,2.191
					c-0.874,0.512-1.91,0.768-3.109,0.768c-1.186,0-2.216-0.256-3.09-0.768c-0.874-0.512-1.548-1.242-2.022-2.191
					c-0.474-0.949-0.711-2.085-0.711-3.408c0-1.323,0.237-2.459,0.711-3.408c0.474-0.949,1.149-1.679,2.022-2.191
					C388.77,51.494,389.8,51.238,390.986,51.238z M390.986,52.979c-0.774,0-1.439,0.181-1.994,0.543
					c-0.555,0.362-0.983,0.887-1.283,1.573c-0.299,0.687-0.449,1.523-0.449,2.509c0,0.974,0.15,1.807,0.449,2.5
					c0.3,0.693,0.727,1.22,1.283,1.582c0.555,0.363,1.22,0.543,1.994,0.543c0.786,0,1.458-0.181,2.013-0.543
					c0.555-0.362,0.983-0.889,1.283-1.582c0.299-0.693,0.45-1.526,0.45-2.5c0-0.986-0.15-1.823-0.45-2.509
					c-0.3-0.686-0.728-1.211-1.283-1.573C392.443,53.16,391.772,52.979,390.986,52.979z"/>
				<path class="st5" d="M408.737,51.425c0.886,0,1.651,0.156,2.294,0.468c0.643,0.312,1.145,0.755,1.508,1.33
					c0.362,0.574,0.543,1.267,0.543,2.078c0,0.799-0.181,1.489-0.543,2.069c-0.362,0.581-0.865,1.027-1.508,1.339
					c-0.643,0.312-1.407,0.468-2.294,0.468h-2.753v4.606h-2.003V51.425H408.737z M408.419,57.455c0.886,0,1.539-0.184,1.957-0.553
					c0.418-0.368,0.627-0.902,0.627-1.601c0-0.712-0.209-1.251-0.627-1.62c-0.418-0.368-1.07-0.552-1.957-0.552h-2.434v4.326
					H408.419z"/>
			</g>
			<g>
				
					<linearGradient id="SVGID_00000079450070698387299390000007885743480760187323_" gradientUnits="userSpaceOnUse" x1="130.1487" y1="6.5413" x2="130.1487" y2="40.3428">
					<stop  offset="0" style="stop-color:#010101"/>
					<stop  offset="1" style="stop-color:#1F2020"/>
				</linearGradient>
				<path style="fill:url(#SVGID_00000079450070698387299390000007885743480760187323_);" d="M123.312,6.541v33.801h-8.809V6.541
					H123.312z M145.18,6.541l-15.877,19l-0.563-1.331l-8.041,9.782l-1.69-7.119l16.389-20.332H145.18z M133.371,19.699
					l12.424,20.644h-9.987l-8.757-15.15L133.371,19.699z"/>
				
					<linearGradient id="SVGID_00000009578626217130147560000000889734254238543753_" gradientUnits="userSpaceOnUse" x1="162.9767" y1="6.5413" x2="162.9767" y2="40.3428">
					<stop  offset="0" style="stop-color:#010101"/>
					<stop  offset="1" style="stop-color:#1F2020"/>
				</linearGradient>
				<path style="fill:url(#SVGID_00000009578626217130147560000000889734254238543753_);" d="M178.418,6.541v6.812h-11.011v26.99
					h-8.809v-26.99h-11.062V6.541H178.418z"/>
				
					<linearGradient id="SVGID_00000175312226112489438040000018206212266333487803_" gradientUnits="userSpaceOnUse" x1="216.7772" y1="6.5413" x2="216.7772" y2="40.3428">
					<stop  offset="0" style="stop-color:#010101"/>
					<stop  offset="1" style="stop-color:#1F2020"/>
				</linearGradient>
				<path style="fill:url(#SVGID_00000175312226112489438040000018206212266333487803_);" d="M236.341,6.541v33.801h-7.785V24.825
					l0.256-10.397h-0.103l-8.348,25.915h-7.119l-8.348-25.915h-0.102l0.256,10.397v15.518h-7.836V6.541h12.547l5.326,17.208
					l1.895,7.17h0.103l1.946-7.119l5.275-17.259H236.341z"/>
				
					<linearGradient id="SVGID_00000014601881617566470640000011935877299295500222_" gradientUnits="userSpaceOnUse" x1="258.9516" y1="6.0292" x2="258.9516" y2="40.8549">
					<stop  offset="0" style="stop-color:#010101"/>
					<stop  offset="1" style="stop-color:#1F2020"/>
				</linearGradient>
				<path style="fill:url(#SVGID_00000014601881617566470640000011935877299295500222_);" d="M258.977,6.029
					c3.414,0,6.358,0.691,8.834,2.074c2.475,1.383,4.379,3.372,5.71,5.966c1.332,2.595,1.997,5.719,1.997,9.372
					c0,3.654-0.666,6.778-1.997,9.372c-1.331,2.595-3.235,4.584-5.71,5.966c-2.476,1.383-5.421,2.074-8.834,2.074
					c-3.415,0-6.368-0.691-8.86-2.074c-2.493-1.383-4.404-3.371-5.736-5.966c-1.331-2.594-1.997-5.718-1.997-9.372
					c0-3.653,0.666-6.777,1.997-9.372c1.332-2.594,3.243-4.584,5.736-5.966C252.609,6.721,255.563,6.029,258.977,6.029z
					 M258.977,12.943c-1.639,0-3.022,0.393-4.148,1.178c-1.127,0.786-1.981,1.955-2.561,3.508c-0.581,1.554-0.871,3.491-0.871,5.813
					c0,2.288,0.29,4.217,0.871,5.787c0.58,1.571,1.434,2.749,2.561,3.534c1.127,0.786,2.51,1.178,4.148,1.178
					c1.639,0,3.013-0.392,4.123-1.178c1.109-0.785,1.954-1.963,2.535-3.534c0.58-1.57,0.871-3.499,0.871-5.787
					c0-2.321-0.291-4.259-0.871-5.813c-0.581-1.553-1.426-2.722-2.535-3.508C261.99,13.336,260.616,12.943,258.977,12.943z"/>
				
					<linearGradient id="SVGID_00000070808455980421161680000002954561728105104276_" gradientUnits="userSpaceOnUse" x1="293.1631" y1="6.5413" x2="293.1631" y2="40.3428">
					<stop  offset="0" style="stop-color:#010101"/>
					<stop  offset="1" style="stop-color:#1F2020"/>
				</linearGradient>
				<path style="fill:url(#SVGID_00000070808455980421161680000002954561728105104276_);" d="M308.604,6.541v6.812h-11.011v26.99
					h-8.809v-26.99h-11.062V6.541H308.604z"/>
				
					<linearGradient id="SVGID_00000129906101300760617130000008922483190737388731_" gradientUnits="userSpaceOnUse" x1="327.3746" y1="6.0292" x2="327.3746" y2="40.8549">
					<stop  offset="0" style="stop-color:#010101"/>
					<stop  offset="1" style="stop-color:#1F2020"/>
				</linearGradient>
				<path style="fill:url(#SVGID_00000129906101300760617130000008922483190737388731_);" d="M327.4,6.029
					c3.414,0,6.358,0.691,8.834,2.074c2.475,1.383,4.379,3.372,5.71,5.966c1.332,2.595,1.997,5.719,1.997,9.372
					c0,3.654-0.666,6.778-1.997,9.372c-1.332,2.595-3.235,4.584-5.71,5.966c-2.476,1.383-5.421,2.074-8.834,2.074
					c-3.415,0-6.368-0.691-8.86-2.074c-2.493-1.383-4.404-3.371-5.736-5.966c-1.332-2.594-1.997-5.718-1.997-9.372
					c0-3.653,0.666-6.777,1.997-9.372c1.332-2.594,3.243-4.584,5.736-5.966C321.032,6.721,323.986,6.029,327.4,6.029z M327.4,12.943
					c-1.639,0-3.022,0.393-4.148,1.178c-1.127,0.786-1.981,1.955-2.561,3.508c-0.581,1.554-0.871,3.491-0.871,5.813
					c0,2.288,0.29,4.217,0.871,5.787c0.58,1.571,1.434,2.749,2.561,3.534c1.127,0.786,2.51,1.178,4.148,1.178
					c1.639,0,3.013-0.392,4.123-1.178c1.109-0.785,1.954-1.963,2.535-3.534c0.58-1.57,0.871-3.499,0.871-5.787
					c0-2.321-0.291-4.259-0.871-5.813c-0.581-1.553-1.426-2.722-2.535-3.508C330.413,13.336,329.039,12.943,327.4,12.943z"/>
				
					<linearGradient id="SVGID_00000018932233723975745900000007511516378712130476_" gradientUnits="userSpaceOnUse" x1="365.4268" y1="6.5413" x2="365.4268" y2="40.3428">
					<stop  offset="0" style="stop-color:#010101"/>
					<stop  offset="1" style="stop-color:#1F2020"/>
				</linearGradient>
				<path style="fill:url(#SVGID_00000018932233723975745900000007511516378712130476_);" d="M366.118,6.541
					c4.028,0,7.161,0.948,9.398,2.842c2.236,1.895,3.355,4.413,3.355,7.554c0,3.449-1.11,6.078-3.329,7.887
					c-2.22,1.81-5.344,2.714-9.372,2.714L365.35,28h-6.709v12.343h-8.655V6.541H366.118z M364.889,21.752
					c1.707,0,2.987-0.341,3.841-1.024c0.853-0.683,1.28-1.775,1.28-3.278c0-1.468-0.427-2.543-1.28-3.227
					c-0.854-0.683-2.134-1.024-3.841-1.024h-6.248v8.553H364.889z M370.062,23.596l10.806,16.747h-9.731l-8.655-14.801
					L370.062,23.596z"/>
				
					<linearGradient id="SVGID_00000031904406857854529500000012381942340935717303_" gradientUnits="userSpaceOnUse" x1="397.7172" y1="6.0292" x2="397.7172" y2="40.8549">
					<stop  offset="0" style="stop-color:#010101"/>
					<stop  offset="1" style="stop-color:#1F2020"/>
				</linearGradient>
				<path style="fill:url(#SVGID_00000031904406857854529500000012381942340935717303_);" d="M398.485,6.029
					c3.141,0,5.915,0.487,8.322,1.46c2.407,0.973,4.498,2.399,6.274,4.276l-4.251,5.685c-1.468-1.536-3.047-2.689-4.737-3.457
					c-1.69-0.768-3.611-1.152-5.762-1.152c-1.264,0-2.288,0.137-3.073,0.41c-0.786,0.274-1.349,0.649-1.69,1.127
					c-0.342,0.478-0.512,1.024-0.512,1.639c0,0.717,0.333,1.324,0.999,1.818c0.666,0.495,1.749,0.914,3.252,1.255l5.685,1.28
					c3.38,0.786,5.855,1.929,7.426,3.431c1.57,1.503,2.356,3.5,2.356,5.992c0,2.39-0.615,4.413-1.844,6.069
					c-1.229,1.656-2.919,2.902-5.07,3.739c-2.151,0.836-4.609,1.255-7.375,1.255c-2.253,0-4.404-0.248-6.453-0.743
					c-2.049-0.495-3.892-1.204-5.531-2.125c-1.639-0.922-3.022-1.98-4.148-3.175l4.251-5.89c0.853,0.991,1.903,1.869,3.15,2.638
					c1.246,0.768,2.612,1.375,4.097,1.818c1.485,0.444,2.996,0.666,4.533,0.666c1.195,0,2.193-0.119,2.996-0.358
					c0.802-0.238,1.391-0.597,1.767-1.075c0.375-0.478,0.563-1.041,0.563-1.69c0-0.717-0.256-1.323-0.768-1.818
					c-0.512-0.495-1.485-0.913-2.919-1.255l-6.248-1.383c-1.912-0.443-3.611-1.032-5.096-1.767c-1.485-0.734-2.655-1.724-3.508-2.97
					c-0.854-1.246-1.28-2.808-1.28-4.686c0-2.117,0.58-4.003,1.741-5.659c1.16-1.656,2.834-2.962,5.019-3.918
					C392.834,6.508,395.446,6.029,398.485,6.029z"/>
			</g>
		</g>
	</g>
</g>
</svg>
