<?xml version="1.0" encoding="utf-8"?>
<!-- Generator: Adobe Illustrator 27.2.0, SVG Export Plug-In . SVG Version: 6.00 Build 0)  -->
<svg version="1.2" baseProfile="tiny" id="Layer_1" xmlns="http://www.w3.org/2000/svg" xmlns:xlink="http://www.w3.org/1999/xlink"
	 x="0px" y="0px" viewBox="0 0 500 500" overflow="visible" xml:space="preserve">
<title>KT Telematic</title>
<g>
	<g>
		<linearGradient id="SVGID_1_" gradientUnits="userSpaceOnUse" x1="131.719" y1="174.3488" x2="222.23" y2="174.3488">
			<stop  offset="0" style="stop-color:#4C4D4E"/>
			<stop  offset="0.9287" style="stop-color:#292929"/>
			<stop  offset="1" style="stop-color:#262626"/>
		</linearGradient>
		<path fill="url(#SVGID_1_)" d="M131.7,133.5v81.7c0,3.9,4.7,5.9,7.5,3.1l81.7-81.7c2.8-2.8,0.8-7.5-3.1-7.5h-81.7
			C133.7,129.1,131.7,131.1,131.7,133.5z"/>
		
			<linearGradient id="SVGID_00000150793698147388470700000015917994930553638285_" gradientUnits="userSpaceOnUse" x1="131.719" y1="346.7329" x2="223.1736" y2="346.7329">
			<stop  offset="0" style="stop-color:#4C4D4E"/>
			<stop  offset="0.9287" style="stop-color:#292929"/>
			<stop  offset="1" style="stop-color:#262626"/>
		</linearGradient>
		<path fill="url(#SVGID_00000150793698147388470700000015917994930553638285_)" d="M222.1,364.6l-42-42l-48.3,48.3h87.7
			C222.8,370.9,224.4,366.9,222.1,364.6z"/>
		
			<linearGradient id="SVGID_00000169541771527461744700000012692280206675073440_" gradientUnits="userSpaceOnUse" x1="203.7954" y1="310.1682" x2="368.281" y2="310.1682">
			<stop  offset="0" style="stop-color:#25CCAC"/>
			<stop  offset="0.2326" style="stop-color:#29D1B1"/>
			<stop  offset="1" style="stop-color:#2AD3B3"/>
		</linearGradient>
		<path fill="url(#SVGID_00000169541771527461744700000012692280206675073440_)" d="M203.8,297.9l73,73h87.7c3.3,0,5-4,2.6-6.3
			L252.1,249.4L203.8,297.9z"/>
		
			<linearGradient id="SVGID_00000157995242084130938820000004976083369779823288_" gradientUnits="userSpaceOnUse" x1="131.719" y1="250" x2="368.281" y2="250">
			<stop  offset="0" style="stop-color:#25CCAC"/>
			<stop  offset="0.2326" style="stop-color:#29D1B1"/>
			<stop  offset="1" style="stop-color:#2AD3B3"/>
		</linearGradient>
		<path fill="url(#SVGID_00000157995242084130938820000004976083369779823288_)" d="M204.3,298.3l48.3-48.3l114.6-114.6
			c2.3-2.3,0.7-6.3-2.6-6.3h-87.7L131.7,274.2v96.7l48.3-48.3L204.3,298.3z"/>
		<image width="328" height="278" xlink:href="72AFFEBB.png"  transform="matrix(0.24 0 0 0.24 204.24 249.84)">
		</image>
		<image width="253" height="203" xlink:href="72AFFEB9.png"  transform="matrix(0.24 0 0 0.24 131.52 322.32)">
		</image>
		<image width="177" height="152" xlink:href="72AFFEBF.png"  transform="matrix(0.24 0 0 0.24 180 298.32)">
		</image>
	</g>
</g>
</svg>
